<?xml version="1.0" encoding="utf-8"?>
<!-- Generator: Adobe Illustrator 21.0.0, SVG Export Plug-In . SVG Version: 6.00 Build 0)  -->
<svg version="1.1" id="Layer_1" xmlns="http://www.w3.org/2000/svg" xmlns:xlink="http://www.w3.org/1999/xlink" x="0px" y="0px"
	 viewBox="0 0 50 50" style="enable-background:new 0 0 50 50;" xml:space="preserve">
<style type="text/css">
	.st0{fill:#186AB7;}
	.st1{fill:#FF8935;}
</style>
<g>
	<g>
		<path class="st0" d="M7,47.3c-0.3,0-0.5-0.1-0.7-0.4c-0.3-0.4-0.3-0.8,0-1.1c0,0,0-0.1,0.1-0.1c0.4-0.8,0.5-2.3,0.5-3.2
			c-0.1-0.9-1.1-2.3-1.7-2.7c-0.2-0.2-0.4-0.3-0.7-0.4c-0.4-0.2-1-0.4-1.5-0.9c0,0-0.1-0.1-0.2-0.2c-0.9-0.9-1.4-1.3-1.3-2
			c0.1-0.7,0.7-1.1,1.1-1.2c0.1,0,0.1-0.1,0.2-0.1c-0.2-0.1-0.5-0.3-0.7-0.6C1.8,34,2,33.7,2,33.5v-0.2L2.1,32
			c0-0.5,0.1-0.9,0.3-1.2c0.7-1.1,1.7-1,2.1-0.9h0.1c0.4-0.4,1-1.6,1.3-2.2c-0.4-0.4-1.2-1.2-1.4-1.4c-0.1-0.1-0.3-0.1-0.4-0.2
			c-0.4-0.1-0.9-0.3-1.2-0.7c-1-1-1.9-4.9-1.3-6.4c0.4-0.9,1-1.6,1.5-2c0.2-0.2,0.4-0.4,0.4-0.5c0.3-0.4,0.8-0.5,1.1-0.4
			c0.9,0.4,2.5,1.2,2.8,1.6c0.3,0.2,0.4,0.5,0.4,0.8c0,0.6-0.4,1-1,1.4c-0.1,0.1-0.3,0.3-0.4,0.4c0.4,0.1,0.8,0,1.6-0.2
			s1.5-0.4,2.3-0.2c0.4,0.1,0.8,0.3,1.3,0.4c0.3,0.1,0.6,0.2,0.9,0.3c0.5,0.2,0.8,0.6,0.6,1.1c-0.2,0.5-0.6,0.8-1.1,0.6
			c-0.4-0.1-0.6-0.2-0.9-0.3c-0.4-0.1-0.9-0.3-1.2-0.4s-0.9,0.1-1.4,0.2c-0.9,0.3-2.3,0.6-3.4-0.4c-0.4-0.4-0.5-0.8-0.5-1.1
			c0-0.7,0.5-1.3,1.1-1.8c-0.3-0.2-0.7-0.4-1.1-0.5C4.3,18,4.3,18,4.2,18.1c-0.4,0.4-0.9,1-1.1,1.5c-0.3,0.7,0.4,3.9,1,4.4
			c0.1,0.1,0.3,0.2,0.4,0.2c0.4,0.1,0.7,0.3,1.1,0.5c0,0,1.9,1.8,1.9,1.9c0.1,0.2,0.3,0.4,0.2,0.9C7.5,28.2,6,31,5.3,31.4
			c-0.5,0.3-1.1,0.2-1.4,0.1H3.8c0,0.2,0,0.4,0,0.4l-0.1,1.5c0.4,0.2,0.7,0.5,0.9,1.1c0.3,1.1-0.5,1.7-1.1,2
			c0.2,0.2,0.4,0.4,0.4,0.4c0.2,0.1,0.3,0.2,0.3,0.3c0.3,0.3,0.4,0.4,0.8,0.4c0.4,0.2,0.8,0.3,1.2,0.6c0.7,0.5,2.2,2.4,2.3,4
			c0.1,0.7,0,1.6-0.2,2.5c0.5-0.2,1.1-0.3,1.7-0.3c1,0,4.3-0.4,4.9-0.7l0,0c0.9-0.6,1.1-0.7,1.2-0.7c0.3-0.1,0.6-0.1,1.1-0.1
			c0.1,0,0.2,0,0.3,0s0.2-0.1,0.2-0.2c0.4-0.3,0.9-0.5,1.4-0.4c0.4,0.1,0.7,0.4,1.2,1.1c0.2,0.2,0.4,0.4,0.6,0.7
			c0.2-0.2,0.4-0.4,0.8-0.4c0.3,0,0.7-0.1,3,1.5c0.3-0.1,0.5-0.2,0.7-0.3c0.1,0,0.2-0.1,0.3-0.1c0.4-0.2,1.3-0.3,2.4-0.5
			c0.8-0.2,2.1-0.4,2.6-0.5c0-0.2-0.4-0.9-0.4-1.2c-0.4-0.8-0.8-1.7-0.3-2.5c0.5-0.7,1.4-0.6,1.8-0.6c0.4,0,1.1-0.2,1.7-0.7
			c0-0.1,0-0.2,0-0.3c0.1-0.4,0.1-1.1,0.6-1.4c0.4-0.4,1.1-0.3,1.6-0.2c0.1,0,0.3,0,0.4,0.1c0.1-0.1,0.3-0.3,0.4-0.4
			c0.3-0.4,0.6-0.7,1.1-0.9c0.1,0,1.4-0.4,1.9-0.4c0.7,0.1,1.2,0.6,1.7,1.1c0.2,0.2,0.4,0.4,0.6,0.5c0.5,0.1,1.2-0.2,1.6-0.4
			c0.2-0.1,0.4-0.2,0.6-0.3c-0.4-0.8-1.1-1.7-1.4-1.9c-0.2,0-0.4-0.1-0.6-0.1c-0.8-0.2-1.7-0.3-2.1-0.9l-0.1-0.1
			c-0.4-0.8,0.2-1.8,0.5-2.3c0.1-0.3,0.3-0.6,0.7-1.1c0.4-0.4,0.9-0.6,1.2-0.8c0.3-0.1,0.4-0.2,0.5-0.3c0-0.2-0.2-0.4-0.3-0.6
			c-0.2-0.5-0.4-1.1-0.4-1.9c0.1-0.4,0.2-1.1,0.4-1.7c0.2-0.4,0.4-0.6,0.5-1c0,0,0-0.2,0.1-0.4c0.1-0.4,0.2-1.4,1.1-1.8
			c0.3-0.1,1.2-0.4,1.7-0.4l0,0c0.3,0,0.4,0.1,0.6,0.2c0.1-0.3,0.3-0.5,0.3-0.6c0-0.3-0.1-0.6-0.2-1c0-0.1-0.1-0.2-0.1-0.3
			c-1.4-0.1-2.8-0.5-2.9-0.5h-0.1c-0.1-0.1-0.7-0.2-1.1-0.4c-1-0.3-1.7-0.5-2-0.7c-0.3-0.1-1.1-0.2-1.3-0.2h-0.3
			c-0.7-0.1-1.2-0.4-1.6-0.6l-0.1-0.1c-0.4-0.2-0.6-0.7-0.4-1.2c0.2-0.4,0.8-0.7,1.2-0.4c0.1,0,0.2,0.1,0.3,0.2
			c0.2,0.1,0.4,0.3,0.8,0.4h0.2c1.1,0.1,1.7,0.2,2,0.4c0.2,0.1,1.1,0.4,1.7,0.5c0.6,0.2,1,0.3,1.2,0.4c0.3,0.1,1.9,0.5,3.1,0.4
			c0.4,0,0.9,0.4,1,0.8c0,0.3,0.1,0.5,0.2,0.9c0.1,0.4,0.3,0.9,0.3,1.4c0,0.6-0.6,2.1-1.1,2.6c-0.4,0.4-1.1,0.4-1.7-0.1
			c0,0,0,0-0.1,0c-0.3,0-0.6,0.2-0.8,0.2c0,0.1,0,0.2-0.1,0.3c-0.1,0.4-0.1,0.8-0.4,1.2c-0.1,0.2-0.2,0.4-0.3,0.5
			c-0.1,0.3-0.3,0.9-0.3,1.1c0,0.2,0.2,0.6,0.3,0.9c0.3,0.7,0.7,1.8-0.1,2.6c-0.4,0.4-1,0.6-1.3,0.8c-0.2,0.1-0.4,0.1-0.4,0.2
			c-0.1,0.2-0.3,0.4-0.4,0.5c0,0.1-0.1,0.2-0.1,0.3l-0.1,0.1c-0.1,0.1-0.2,0.3-0.3,0.4c0.2,0.1,0.4,0.1,0.6,0.1
			c0.6,0.1,1.1,0.2,1.4,0.4c0.4,0.4,2,2.6,2.4,3.6c0.4,0.9-0.5,1.2-1.2,1.5c-0.2,0.1-0.4,0.2-0.5,0.3c-0.5,0.4-1.8,0.8-2.9,0.6
			c-0.7-0.1-1.1-0.6-1.6-1.1c-0.2-0.2-0.4-0.4-0.5-0.5c-0.3,0-0.8,0.2-1,0.2c-0.1,0.1-0.3,0.3-0.4,0.4c-0.4,0.4-0.7,0.8-1.3,1
			c-0.4,0.1-0.7,0-1.1,0h-0.1l0,0c-0.1,0.4-0.1,1-0.5,1.3c-1,0.9-1.9,1.3-3,1.3c0.1,0.2,0.1,0.3,0.2,0.4c0.4,1,1.2,2.6-0.1,3.5
			c-0.4,0.3-1.1,0.4-3.4,0.9c-0.9,0.2-1.9,0.4-2.1,0.4c-0.1,0-0.1,0-0.2,0.1c-0.8,0.3-1.4,0.5-1.9,0.3c-0.1,0-0.2-0.1-0.2-0.1
			c-0.6-0.4-1.4-1-1.9-1.2c-0.3,0.3-0.6,0.6-1.1,0.5c-0.6-0.1-1.2-0.7-2-1.7c-0.1-0.1-0.2-0.2-0.3-0.3c-0.3,0.2-0.6,0.4-1,0.4
			c-0.1,0-0.3,0-0.4,0c-0.2,0-0.5,0-0.8,0c-0.2,0.1-0.4,0.3-0.6,0.4l0,0c-1.1,0.8-5.9,1.1-6,1.1c-0.7,0-1.9,0.4-2.4,0.6
			C7.5,47.2,7.3,47.3,7,47.3z M31.1,44L31.1,44L31.1,44z M15.1,43.9L15.1,43.9L15.1,43.9z M17.8,43.1L17.8,43.1L17.8,43.1z M17.9,43
			L17.9,43L17.9,43z M33.6,39L33.6,39L33.6,39z M33.8,39L33.8,39L33.8,39z M44.5,37.2L44.5,37.2L44.5,37.2z M42.7,34.5L42.7,34.5
			L42.7,34.5z M4,31.4L4,31.4L4,31.4z M46,23.2L46,23.2L46,23.2z M47.1,20.9L47.1,20.9L47.1,20.9z"/>
	</g>
	<g>
		<path class="st0" d="M24.2,32.4c-0.3,0-0.5-0.1-0.7-0.4c-1.1-1.2-10.7-12.5-10.7-17.9c0-6.3,5.1-11.4,11.4-11.4
			c6.3,0,11.3,5.1,11.3,11.4c0,5.4-9.5,16.7-10.7,18C24.7,32.3,24.4,32.4,24.2,32.4z M24.2,4.6c-5.2,0-9.5,4.2-9.5,9.5
			c0,3.7,6.4,12.1,9.5,16c3.2-3.9,9.5-12.3,9.5-16C33.7,8.8,29.4,4.6,24.2,4.6z"/>
	</g>
	<path class="st1" d="M23.9,11c0,0.7,0.3,1.6,0.6,2.4l1.3-0.5c-0.3-0.4-0.4-1.1-0.4-1.6c0-1.1,0.5-1.7,1.5-1.7c1,0,1.5,0.6,1.5,1.7
		c0,0.4-0.2,1.1-0.4,1.6l1.3,0.5c0.4-0.8,0.6-1.7,0.6-2.4c0-1.9-1.3-2.8-3.1-2.8S23.9,9.1,23.9,11 M21.8,14.2c0.6,0,1.3-0.2,1.9-0.4
		l-0.5-1.1c-0.4,0.2-0.8,0.3-1.2,0.3c-1.1,0-1.7-0.5-1.7-1.7c0-1.1,0.6-1.6,1.7-1.6c0.5,0,0.9,0.2,1.1,0.3l0.5-1.2
		c-0.4-0.2-1.1-0.4-1.8-0.4c-1.9,0-3.4,1.1-3.4,3C18.6,13.3,19.7,14.2,21.8,14.2 M27,13.6c-0.7,0-1.3,0.2-1.9,0.4l0.5,1.1
		c0.4-0.2,0.8-0.3,1.2-0.3c1.1,0,1.7,0.5,1.7,1.7c0,1.1-0.6,1.6-1.7,1.6c-0.5,0-0.9-0.2-1.1-0.3l-0.5,1.1c0.4,0.3,1.1,0.5,1.8,0.5
		c1.9,0,3.4-1.1,3.4-3C30.1,14.6,28.9,13.6,27,13.6 M24.8,16.8c0-0.7-0.3-1.6-0.6-2.4L22.8,15c0.3,0.4,0.4,1.1,0.4,1.6
		c0,1.1-0.5,1.7-1.5,1.7c-1,0-1.5-0.6-1.5-1.7c0-0.4,0.2-1.1,0.4-1.6l-1.3-0.5c-0.4,0.8-0.6,1.7-0.6,2.4c0,1.9,1.3,2.8,3.1,2.8
		C23.4,19.6,24.8,18.6,24.8,16.8"/>
	<g>
		<path class="st0" d="M27.5,35.6h-8.9c-0.5,0-0.9-0.4-0.9-0.9c0-0.5,0.4-0.9,0.9-0.9h8.9c0.5,0,0.9,0.4,0.9,0.9S28,35.6,27.5,35.6z
			"/>
	</g>
	<g>
		<path class="st1" d="M31.7,35.6h-1.1c-0.5,0-0.9-0.4-0.9-0.9c0-0.5,0.4-0.9,0.9-0.9h1.1c0.5,0,0.9,0.4,0.9,0.9
			S32.2,35.6,31.7,35.6z"/>
	</g>
</g>
</svg>
