<?xml version="1.0" encoding="utf-8"?>
<!-- Generator: Adobe Illustrator 16.0.0, SVG Export Plug-In . SVG Version: 6.00 Build 0)  -->
<!DOCTYPE svg PUBLIC "-//W3C//DTD SVG 1.1//EN" "http://www.w3.org/Graphics/SVG/1.1/DTD/svg11.dtd">
<svg version="1.1" id="Calque_1" xmlns="http://www.w3.org/2000/svg" xmlns:xlink="http://www.w3.org/1999/xlink" x="0px" y="0px"
	 width="359.092px" height="88.635px" viewBox="0 0 359.092 88.635" enable-background="new 0 0 359.092 88.635"
	 xml:space="preserve">
<g>
	<g>
		<path fill="#0054A4" d="M106.17,44.057c0-8.979,6.643-13.445,13.647-13.445c5.501,0,8.511,2.494,8.511,5.921
			c0,1.347-0.205,2.282-0.512,2.959l-4.471,0.416v-0.784c0-3.06-1.136-4.094-3.993-4.094c-3.999,0-7.165,2.902-7.165,8.614
			c0,6.227,3.062,9.082,7.684,9.082c2.854,0,5.553-1.039,7.162-2.024h0.419l-0.624,4.466c-2.287,1.611-5.716,2.229-7.789,2.229
			C111.356,57.396,106.17,53.038,106.17,44.057"/>
		<path fill="#0054A4" d="M134.355,35.601l-4.357,0.621l0.828-4.932l6.127-0.679h3.267l-0.36,3.788h0.36
			c1.561-2.437,3.943-3.788,6.386-3.788c1.092,0,2.235,0.209,2.699,0.521l-1.191,5.921c-0.523-0.467-1.404-0.937-2.702-0.937
			c-2.335,0-3.999,0.674-5.191,2.389v18.479h-5.864V35.601z"/>
		<path fill="#0054A4" d="M150.245,44.061c0-8.727,6.38-13.449,13.079-13.449c5.76,0,9.705,2.804,9.705,7.685
			c0,5.245-3.113,7.008-7.783,7.008h-9.137c0.207,5.192,3.32,7.422,7.68,7.422c2.441,0,5.088-0.62,7.111-1.713h0.418l-0.418,4.673
			c-2.076,1.246-5.918,1.71-8.045,1.71C155.589,57.396,150.245,53.036,150.245,44.061 M156.262,41.464h8.668
			c1.921,0,2.856-0.42,2.856-2.803c0-2.074-1.191-3.634-4.462-3.634C160.158,35.027,157.146,36.791,156.262,41.464"/>
		<path fill="#0054A4" d="M176.461,44.524c0-9.134,6.643-13.913,13.598-13.913c1.607,0,3.215,0.365,4.358,0.885v-8.564l-4.931,0.832
			l0.678-4.878l7.783-0.833h2.751c-0.261,1.295-0.466,4.151-0.466,5.868v27.092c0,1.612,0.466,2.023,2.072,2.023h2.025l-0.985,3.843
			c-0.932,0.312-2.388,0.517-3.634,0.517c-2.281,0-3.734-0.934-4.467-2.697h-0.41c-1.713,1.661-4.203,2.697-7.475,2.697
			C181.232,57.396,176.461,53.145,176.461,44.524 M194.417,50.652v-14.38c-0.882-0.676-2.125-1.195-3.995-1.195
			c-4.516,0-7.889,2.91-7.889,9.291c0,5.71,2.439,8.357,6.279,8.357C191.147,52.726,193.014,51.896,194.417,50.652"/>
		<path fill="#0054A4" d="M209.889,51.376V35.601l-4.359,0.621l0.829-4.932l6.493-0.679h3.476c-0.261,1.146-0.573,4.936-0.573,6.542
			v13.859c0,1.612,0.262,2.023,1.871,2.023h2.386l-0.884,3.843c-0.876,0.312-2.957,0.517-4.15,0.517
			C211.445,57.396,209.889,55.326,209.889,51.376 M210.146,21.324c0-2.028,1.354-3.271,3.375-3.271c2.081,0,3.43,1.243,3.43,3.271
			c0,2.021-1.349,3.268-3.43,3.268C211.5,24.592,210.146,23.346,210.146,21.324"/>
		<path fill="#0054A4" d="M222.814,55.789l0.782-5.243h0.413c1.814,1.194,4.52,2.282,7.375,2.282c3.27,0,5.709-0.879,5.709-3.269
			c0-2.229-1.922-2.75-4.053-3.219l-2.904-0.624c-4.258-0.932-6.955-2.955-6.955-7.421c0-4.881,4.309-7.685,10.173-7.685
			c3.582,0,6.753,0.679,8.67,1.56l-1.194,4.775h-0.415c-1.606-1.039-4.048-1.762-6.646-1.762c-2.594,0-4.721,0.517-4.721,2.694
			c0,2.34,1.193,2.647,3.579,3.271l3.532,0.78c3.891,0.879,6.748,2.646,6.748,7.267c0,5.501-4.938,8.198-11.523,8.198
			C228.267,57.396,224.842,56.725,222.814,55.789"/>
		<path fill="#0054A4" d="M247.009,55.789l0.776-5.243h0.418c1.814,1.194,4.518,2.282,7.365,2.282c3.274,0,5.713-0.879,5.713-3.269
			c0-2.229-1.92-2.75-4.047-3.219l-2.906-0.624c-4.252-0.932-6.957-2.955-6.957-7.421c0-4.881,4.311-7.685,10.176-7.685
			c3.578,0,6.744,0.679,8.668,1.56l-1.193,4.775h-0.42c-1.606-1.039-4.041-1.762-6.641-1.762c-2.596,0-4.723,0.517-4.723,2.694
			c0,2.34,1.195,2.647,3.582,3.271l3.533,0.78c3.889,0.879,6.746,2.646,6.746,7.267c0,5.501-4.935,8.198-11.531,8.198
			C252.459,57.396,249.033,56.725,247.009,55.789"/>
		<path fill="#0054A4" d="M273.953,51.376V35.601l-4.363,0.621l0.836-4.932l6.486-0.679h3.479c-0.262,1.146-0.575,4.936-0.575,6.542
			v13.859c0,1.612,0.263,2.023,1.872,2.023h2.389l-0.887,3.843c-0.878,0.312-2.956,0.517-4.152,0.517
			C275.51,57.396,273.953,55.326,273.953,51.376 M274.209,21.324c0-2.028,1.352-3.271,3.373-3.271c2.079,0,3.43,1.243,3.43,3.271
			c0,2.021-1.351,3.268-3.43,3.268C275.561,24.592,274.209,23.346,274.209,21.324"/>
		<path fill="#0054A4" d="M321.451,51.376v-9.293c0-4.41-1.037-6.591-4.983-6.591c-1.917,0-3.841,0.885-5.294,2.387
			c0.104,0.989,0.104,1.973,0.104,3.116v15.987h-5.657V41.88c0-4.414-0.671-6.489-4.778-6.489c-1.973,0-3.996,1.142-5.35,2.697
			v18.895h-5.863V35.597l-4.357,0.626l0.828-4.933l6.127-0.679h3.266l-0.359,3.479h0.359c1.252-1.658,4.262-3.479,7.325-3.479
			c3.478,0,5.921,1.039,7.317,3.896c1.506-1.769,4.311-3.737,7.739-3.737c5.808,0,9.389,2.595,9.389,10.436v9.807
			c0,1.612,0.261,2.025,1.874,2.025h2.022l-0.776,3.841c-0.888,0.312-2.599,0.517-3.898,0.517
			C323.113,57.396,321.451,55.326,321.451,51.376"/>
		<path fill="#0054A4" d="M346.271,57.396c-7.787,0-12.823-4.877-12.823-13.388c0-8.461,5.243-13.396,12.823-13.396
			c7.736,0,12.82,4.678,12.82,13.446C359.092,52.414,353.643,57.396,346.271,57.396 M346.271,35.234
			c-4.414,0-6.746,3.218-6.746,8.773c0,5.552,2.332,8.771,6.746,8.771c4.411,0,6.748-3.219,6.748-8.771
			C353.02,38.452,350.683,35.234,346.271,35.234"/>
	</g>
	<g>
		<path fill="#FF7C1E" d="M40.805,21.566c0,5.282,1.691,12.26,4.855,18.182l10.152-4.235c-1.689-3.382-2.745-8.451-2.745-11.834
			c0-8.24,4.023-13.109,11.41-13.109c7.407,0,11.421,4.869,11.421,13.109c0,3.383-1.058,8.452-2.754,11.834l10.15,4.235
			c3.162-5.922,4.854-12.899,4.854-18.182C88.148,7.611,78.215,0,64.478,0C50.738,0,40.805,7.611,40.805,21.566 M24.315,46.505
			c4.857,0,10.14-1.271,15.007-3.592l-3.807-9.087c-2.742,1.266-6.13,2.111-9.511,2.111c-8.239,0-12.683-4.229-12.683-12.678
			c0-8.247,4.862-12.482,13.102-12.482c3.807,0,6.768,1.063,8.878,2.116l3.812-9.722C36.15,1.484,31.08,0,25.794,0
			C11.201,0,0,8.036,0,23.26C0,39.108,9.092,46.505,24.315,46.505 M63.85,41.668c-5.076,0-10.146,1.27-15.008,3.591l3.804,9.087
			c2.739-1.264,6.128-2.107,9.509-2.107c8.242,0,12.687,4.229,12.687,12.68c0,8.247-4.866,12.477-13.104,12.477
			c-3.812,0-6.773-1.062-8.877-2.114l-3.807,9.089c2.967,2.114,8.038,3.799,13.309,3.799c14.594,0,25.787-8.027,25.787-23.25
			C88.148,49.063,79.065,41.668,63.85,41.668 M47.354,66.614c0-5.283-1.693-12.269-4.857-18.183L32.344,52.66
			c1.691,3.381,2.754,8.458,2.754,11.84c0,8.244-4.018,13.104-11.419,13.104c-7.394,0-11.417-4.859-11.417-13.104
			c0-3.382,1.061-8.459,2.75-11.84L4.871,48.432C1.697,54.346,0,61.331,0,66.614c0,13.942,9.938,21.554,23.679,21.554
			S47.354,80.557,47.354,66.614"/>
		<g>
			<path fill="#FF7C1E" d="M194.088,70.727h2.219l0.108,2.023c1.009-1.576,2.448-2.363,4.313-2.363c1.055,0,1.904,0.195,2.553,0.591
				c0.65,0.395,1.135,0.927,1.452,1.6c0.323,0.666,0.525,1.401,0.615,2.192c0.095,0.796,0.141,1.704,0.141,2.731v5.863h-2.341
				v-5.679c0-1.073-0.014-1.773-0.031-2.104c-0.022-0.335-0.08-0.665-0.182-1.003c-0.393-1.375-1.286-2.064-2.693-2.064
				c-0.527,0-1.011,0.106-1.461,0.314c-0.447,0.211-0.832,0.506-1.152,0.881c-0.327,0.38-0.566,0.841-0.725,1.38
				c-0.124,0.409-0.203,0.839-0.238,1.294c-0.033,0.454-0.051,1.238-0.051,2.354v4.627h-2.367v-6.219
				C194.248,74.998,194.195,72.858,194.088,70.727"/>
			<path fill="#FF7C1E" d="M216.155,81.166c-0.456,0.849-1.02,1.48-1.694,1.896c-0.666,0.422-1.48,0.631-2.449,0.631
				c-0.867,0-1.629-0.168-2.287-0.502c-0.656-0.33-1.166-0.8-1.516-1.403c-0.359-0.598-0.536-1.273-0.536-2.027
				c0-0.665,0.142-1.257,0.426-1.774c0.286-0.516,0.714-0.955,1.298-1.314c0.578-0.36,1.271-0.627,2.077-0.802
				s1.741-0.263,2.797-0.263c0.594,0,1.138,0.017,1.646,0.05c-0.025-2.182-1.078-3.274-3.156-3.274
				c-0.691,0-1.322,0.102-1.891,0.303c-0.568,0.199-1.189,0.554-1.856,1.047l-0.103-2.047c1.365-0.868,2.776-1.299,4.23-1.299
				c2.43,0,3.982,0.905,4.658,2.721c0.254,0.712,0.379,1.874,0.379,3.499v2.475c0,1.897,0.043,3.326,0.131,4.283h-2.153
				c-0.021-0.294-0.03-0.615-0.03-0.979C216.125,81.937,216.135,81.529,216.155,81.166 M212.578,81.811
				c1.166,0,2.018-0.411,2.558-1.231c0.538-0.818,0.807-1.888,0.807-3.199c-0.376-0.05-0.751-0.077-1.132-0.077
				c-3.109,0-4.664,0.808-4.664,2.424c0,0.397,0.097,0.75,0.303,1.062c0.196,0.317,0.486,0.561,0.854,0.747
				C211.674,81.722,212.093,81.811,212.578,81.811"/>
			<path fill="#FF7C1E" d="M221.865,70.727h2.232l0.133,2.206c0.486-0.777,1.104-1.375,1.851-1.789
				c0.741-0.419,1.597-0.628,2.54-0.628c1.087,0,2.042,0.265,2.87,0.789c0.822,0.526,1.456,1.274,1.904,2.236
				c0.45,0.963,0.666,2.074,0.666,3.328c0,1.33-0.228,2.503-0.684,3.509c-0.456,1.012-1.095,1.791-1.923,2.341
				c-0.826,0.55-1.793,0.83-2.888,0.83c-0.665,0-1.275-0.093-1.828-0.272c-0.554-0.176-1.028-0.449-1.431-0.805
				c-0.404-0.358-0.762-0.826-1.078-1.412c0.097,0.821,0.14,1.627,0.14,2.428v5.147h-2.341V76.249
				C222.029,74.57,221.97,72.727,221.865,70.727 M231.594,77.031c0-0.882-0.143-1.67-0.436-2.356
				c-0.288-0.685-0.699-1.218-1.223-1.593c-0.526-0.38-1.138-0.567-1.824-0.567c-1.056,0-1.941,0.434-2.656,1.302
				c-0.723,0.866-1.085,1.947-1.085,3.243c0,0.815,0.163,1.566,0.495,2.259s0.775,1.232,1.338,1.624
				c0.56,0.385,1.186,0.581,1.878,0.581c0.5,0,0.964-0.114,1.397-0.341c0.428-0.228,0.8-0.548,1.113-0.961
				c0.316-0.409,0.56-0.883,0.736-1.409C231.507,78.28,231.594,77.689,231.594,77.031"/>
			<path fill="#FF7C1E" d="M245.439,70.727h2.312v7.982c0,0.693,0.021,1.445,0.061,2.254c0.043,0.812,0.078,1.612,0.125,2.401h-2.17
				l-0.08-1.983c-1.095,1.54-2.529,2.312-4.291,2.312c-1.205,0-2.152-0.286-2.852-0.848c-0.698-0.569-1.176-1.31-1.442-2.229
				c-0.261-0.921-0.392-1.981-0.392-3.182v-6.709h2.366v5.872c0,1.866,0.127,3.055,0.383,3.575c0.548,1.073,1.353,1.612,2.394,1.612
				c1.057,0,1.916-0.431,2.584-1.294c0.667-0.86,1.002-1.98,1.002-3.351V70.727z"/>
			<polygon fill="#FF7C1E" points="269.291,83.364 266.927,83.364 266.927,77.657 260.887,77.657 260.887,83.364 258.521,83.364 
				258.521,70.727 260.887,70.727 260.887,75.83 266.927,75.83 266.927,70.727 269.291,70.727 			"/>
			<path fill="#FF7C1E" d="M280.352,81.166c-0.455,0.849-1.018,1.48-1.691,1.896c-0.67,0.422-1.488,0.631-2.45,0.631
				c-0.867,0-1.633-0.168-2.287-0.502c-0.658-0.33-1.163-0.8-1.519-1.403c-0.361-0.598-0.531-1.273-0.531-2.027
				c0-0.665,0.139-1.257,0.424-1.774c0.286-0.516,0.719-0.955,1.297-1.314c0.578-0.36,1.273-0.627,2.071-0.802
				c0.812-0.175,1.747-0.263,2.806-0.263c0.59,0,1.137,0.017,1.648,0.05c-0.029-2.182-1.082-3.274-3.156-3.274
				c-0.697,0-1.328,0.102-1.897,0.303c-0.567,0.199-1.19,0.554-1.854,1.047l-0.104-2.047c1.363-0.868,2.777-1.299,4.232-1.299
				c2.428,0,3.982,0.905,4.657,2.721c0.251,0.712,0.38,1.874,0.38,3.499v2.475c0,1.897,0.041,3.326,0.132,4.283h-2.157
				c-0.016-0.294-0.028-0.615-0.028-0.979C280.323,81.937,280.336,81.529,280.352,81.166 M276.775,81.811
				c1.166,0,2.016-0.411,2.559-1.231c0.537-0.818,0.807-1.888,0.807-3.199c-0.377-0.05-0.749-0.077-1.13-0.077
				c-3.11,0-4.671,0.808-4.671,2.424c0,0.397,0.105,0.75,0.305,1.062c0.197,0.317,0.49,0.561,0.855,0.747
				C275.867,81.722,276.296,81.811,276.775,81.811"/>
			<path fill="#FF7C1E" d="M285.465,76.959v-3.72c0-1.428,0.117-2.64,0.359-3.638c0.238-0.992,0.594-1.787,1.061-2.377
				c0.477-0.595,1.05-1.015,1.715-1.264c0.664-0.25,1.458-0.373,2.395-0.373c1.126,0,2.029,0.101,2.703,0.314
				c0.674,0.208,1.221,0.564,1.633,1.062c0.609,0.745,0.91,1.615,0.91,2.606c0,0.788-0.256,1.527-0.75,2.218
				c-0.502,0.686-1.06,1.224-1.67,1.612c0.524,0.119,1.037,0.362,1.535,0.723c0.5,0.366,0.924,0.896,1.264,1.584
				c0.344,0.696,0.514,1.542,0.514,2.539c0,0.421-0.058,0.864-0.17,1.332c-0.115,0.464-0.299,0.936-0.544,1.419
				c-0.254,0.482-0.563,0.919-0.929,1.315c-0.469,0.472-1.018,0.821-1.664,1.045c-0.637,0.223-1.465,0.335-2.482,0.335
				c-1.753,0-3.17-0.495-4.251-1.48C286.008,81.227,285.465,79.476,285.465,76.959 M287.807,75.066v2.535
				c0,0.331,0.024,0.651,0.074,0.964c0.047,0.31,0.115,0.598,0.21,0.862c0.093,0.269,0.214,0.518,0.36,0.744
				c0.148,0.229,0.312,0.445,0.49,0.643c0.61,0.666,1.428,0.996,2.459,0.996c0.972,0,1.758-0.322,2.355-0.969
				c0.602-0.648,0.901-1.462,0.901-2.443c0-0.743-0.138-1.375-0.415-1.902c-0.275-0.525-0.713-0.935-1.307-1.224
				c-0.596-0.297-1.355-0.444-2.273-0.444C289.652,74.828,288.702,74.909,287.807,75.066 M287.831,73.367
				c1.114-0.209,2.141-0.312,3.08-0.312c0.46,0,0.845,0.02,1.13,0.053c0.57-0.43,1.018-0.932,1.34-1.514
				c0.327-0.579,0.488-1.109,0.488-1.587c0-0.59-0.113-1.08-0.335-1.475c-0.227-0.395-0.554-0.69-0.981-0.883
				s-0.947-0.29-1.559-0.29c-0.803,0-1.434,0.154-1.898,0.462c-0.46,0.309-0.79,0.764-0.982,1.367
				c-0.186,0.605-0.282,1.391-0.282,2.354V73.367z"/>
			<path fill="#FF7C1E" d="M299.885,70.727h2.232l0.131,2.206c0.491-0.777,1.106-1.375,1.857-1.789
				c0.742-0.419,1.592-0.628,2.538-0.628c1.085,0,2.042,0.265,2.866,0.789c0.818,0.526,1.457,1.274,1.906,2.236
				c0.445,0.963,0.67,2.074,0.67,3.328c0,1.33-0.228,2.503-0.685,3.509c-0.458,1.012-1.099,1.791-1.929,2.341
				c-0.826,0.55-1.785,0.83-2.881,0.83c-0.666,0-1.277-0.093-1.828-0.272c-0.56-0.176-1.035-0.449-1.438-0.805
				c-0.404-0.358-0.764-0.826-1.078-1.412c0.1,0.821,0.148,1.627,0.148,2.428v5.147h-2.34V76.249
				C300.057,74.57,299.996,72.727,299.885,70.727 M309.613,77.031c0-0.882-0.145-1.67-0.436-2.356
				c-0.286-0.685-0.695-1.218-1.225-1.593c-0.521-0.38-1.133-0.567-1.822-0.567c-1.051,0-1.939,0.434-2.66,1.302
				c-0.717,0.866-1.074,1.947-1.074,3.243c0,0.815,0.164,1.566,0.488,2.259c0.332,0.692,0.775,1.232,1.334,1.624
				c0.564,0.385,1.19,0.581,1.883,0.581c0.498,0,0.964-0.114,1.396-0.341c0.432-0.228,0.798-0.548,1.115-0.961
				c0.317-0.409,0.561-0.883,0.732-1.409C309.526,78.28,309.613,77.689,309.613,77.031"/>
			<path fill="#FF7C1E" d="M325.577,77.657h-9.101c0.154,1.251,0.613,2.243,1.36,2.971c0.749,0.728,1.692,1.095,2.837,1.095
				c0.672,0,1.34-0.104,1.992-0.311c0.662-0.205,1.321-0.506,1.976-0.903v2.262c-0.752,0.338-1.44,0.571-2.054,0.712
				c-0.619,0.14-1.293,0.211-2.021,0.211c-0.943,0-1.82-0.159-2.631-0.474c-0.809-0.32-1.492-0.775-2.076-1.375
				c-0.58-0.598-1.015-1.315-1.306-2.148c-0.298-0.836-0.438-1.769-0.438-2.802c0-1.296,0.244-2.438,0.736-3.419
				c0.498-0.981,1.197-1.742,2.102-2.282c0.898-0.539,1.932-0.807,3.1-0.807c1.994,0,3.406,0.681,4.253,2.05
				C325.152,73.804,325.577,75.544,325.577,77.657 M319.975,72.238c-0.592,0-1.132,0.148-1.631,0.436
				c-0.501,0.288-0.907,0.704-1.217,1.243c-0.304,0.539-0.52,1.173-0.619,1.913h6.702c-0.107-1.062-0.417-1.927-0.933-2.589
				C321.756,72.571,320.994,72.238,319.975,72.238"/>
			<path fill="#FF7C1E" d="M336.698,83.364h-1.901l-2.384-6.143c-0.131-0.367-0.479-1.228-1.039-2.575
				c-0.562-1.35-0.867-2.025-0.921-2.025c0-0.09,0.021,0.35,0.054,1.302c0.032,0.956,0.056,1.729,0.056,2.326v7.115h-2.342V70.727
				h3.745l2.5,6.339c0.221,0.558,0.649,1.747,1.287,3.552c0.15-0.431,0.305-0.87,0.459-1.326c0.155-0.451,0.299-0.84,0.425-1.167
				c0.127-0.327,0.262-0.681,0.417-1.059l2.5-6.339h3.747v12.638h-2.343v-7.115c0-0.598,0.019-1.37,0.056-2.326
				c0.032-0.952,0.056-1.392,0.056-1.302c-0.029,0-0.149,0.237-0.356,0.71c-0.214,0.473-0.448,1.026-0.715,1.659
				c-0.26,0.63-0.458,1.117-0.605,1.464c-0.141,0.344-0.242,0.605-0.298,0.768L336.698,83.364z"/>
			<path fill="#FF7C1E" d="M357.157,77.657h-9.094c0.152,1.251,0.613,2.243,1.357,2.971c0.749,0.728,1.697,1.095,2.835,1.095
				c0.673,0,1.345-0.104,2.003-0.311c0.656-0.205,1.314-0.506,1.971-0.903v2.262c-0.754,0.338-1.442,0.571-2.059,0.712
				c-0.614,0.14-1.288,0.211-2.02,0.211c-0.944,0-1.822-0.159-2.631-0.474c-0.805-0.32-1.498-0.775-2.074-1.375
				c-0.578-0.598-1.015-1.315-1.31-2.148c-0.293-0.836-0.441-1.769-0.441-2.802c0-1.296,0.25-2.438,0.74-3.419
				c0.492-0.981,1.198-1.742,2.099-2.282c0.902-0.539,1.941-0.807,3.104-0.807c1.994,0,3.407,0.681,4.257,2.05
				C356.742,73.804,357.157,75.544,357.157,77.657 M351.562,72.238c-0.59,0-1.138,0.148-1.634,0.436
				c-0.497,0.288-0.903,0.704-1.217,1.243s-0.517,1.173-0.625,1.913h6.708c-0.104-1.062-0.42-1.927-0.936-2.589
				C353.343,72.571,352.582,72.238,351.562,72.238"/>
		</g>
	</g>
</g>
</svg>
