<?xml version="1.0" encoding="utf-8"?>
<!-- Generator: Adobe Illustrator 21.0.0, SVG Export Plug-In . SVG Version: 6.00 Build 0)  -->
<svg version="1.1" id="Layer_1" xmlns="http://www.w3.org/2000/svg" xmlns:xlink="http://www.w3.org/1999/xlink" x="0px" y="0px"
	 viewBox="0 0 50 50" style="enable-background:new 0 0 50 50;" xml:space="preserve">
<style type="text/css">
	.st0{fill:#FF7C1E;}
	.st1{fill:#186AB7;}
</style>
<g>
	<g>
		<path class="st0" d="M30,18.6c-4.9,0-8.8-3.9-8.8-8.8S25.2,1,30,1c4.8,0,8.8,3.9,8.8,8.8S34.9,18.6,30,18.6z M30,3
			c-3.8,0-6.9,3.1-6.9,6.9s3.1,6.9,6.9,6.9s6.9-3.1,6.9-6.9S33.9,3,30,3z"/>
	</g>
	<g>
		<path class="st1" d="M45.9,26.6c-0.1,0.1-0.7,1.1-1.6,1.3c-0.7,0.1-1.3-0.1-2.2-0.7c-0.7-2.9-2.4-5.5-5-7.6l-1.4,1.8
			c2.9,2.4,4.5,5.6,4.5,8.8c0,3.7-2,7.2-5.5,9.6l-0.7,0.5l1.2,6.2h-4.8h-0.1l-0.9-4.1l-1.1,0.2c-1.1,0.2-2.8,0.4-4.2,0.4
			s-3.1-0.2-4.2-0.4l-1.1-0.2L18,46.6l-0.1,0.1h-4.8l1.3-6l-1.1-0.3c-1.9-0.6-3.5-2.1-4.4-4.2l-0.3-0.8H5.3c-0.1,0-0.3,0-0.4,0v-5.7
			c0-0.5,0.2-0.5,0.4-0.5h2.9l0.2-1c0.4-1.8,1.2-3.5,2.6-5.1l0.3-0.4v-0.5c-0.2-2.3-1.1-3.7-1.9-5.3l0,0c2.8-0.1,5,0.6,6.5,1.8
			l0.5,0.4l0.7-0.3c1.1-0.4,2.3-0.8,3.6-1l-0.5-2.3c-1.2,0.2-2.4,0.5-3.4,0.9c-1.7-1.2-4.7-2.4-9.5-1.8l-0.9,1.7
			c0.4,0.7,0.7,1.2,1,1.7c0.8,1.2,1.3,2.2,1.5,3.7c-1.2,1.4-2.1,3.1-2.6,4.8H5.2c-1.6,0-2.7,1.1-2.7,2.9v5.8c0,1.4,1,2.2,2.8,2.2H7
			c1.1,2,2.6,3.6,4.5,4.5l-1,4.5c-0.1,0.6,0,1.1,0.4,1.6s1,0.8,1.6,0.8l0,0h5.2c1.1,0,2.1-0.9,2.4-1.9l0.4-1.9
			c1.1,0.2,2.4,0.2,3.5,0.2c1.1,0,2.4-0.1,3.5-0.2l0.4,1.9c0.2,1.1,1.2,1.9,2.4,1.9h5.2l0,0c0.7,0,1.2-0.3,1.6-0.8
			c0.4-0.5,0.5-1.1,0.4-1.6l-1.1-5.2c3.7-2.9,5.8-6.8,5.8-11.1c0-0.1,0-0.2,0-0.3c0.5,0.2,1,0.3,1.4,0.3c0.3,0,0.6,0,0.9-0.1
			c1.8-0.4,2.9-2,3.2-2.4L45.9,26.6z"/>
		<path class="st1" d="M12.9,28.5c0.2-0.4,0.5-0.8,0.9-1.1l-1.6-1.6c-0.5,0.5-1,1.1-1.2,1.6L12.9,28.5z"/>
	</g>
	<path class="st0" d="M29.8,7.9c0,0.6,0.2,1.1,0.5,1.6l0.9-0.4c-0.2-0.4-0.2-0.7-0.3-1.1c0-0.8,0.4-1.1,1.1-1.1s1.1,0.5,1.1,1.1
		c0,0.4-0.1,0.8-0.3,1.1l1,0.4C33.9,9,34,8.5,34.1,7.9c0-1.1-0.8-1.9-1.8-1.9c-0.1,0-0.2,0-0.3,0c-1.1-0.2-2,0.5-2.2,1.5
		C29.8,7.6,29.8,7.7,29.8,7.9 M28.3,10.1c0.5,0,1-0.1,1.3-0.3L29.3,9C29,9,28.7,9.1,28.4,9.1c-0.6,0.1-1.1-0.3-1.1-0.9
		c0-0.1,0-0.2,0-0.3c-0.1-0.6,0.4-1.1,1-1.1c0.1,0,0.2,0,0.2,0c0.3,0,0.6,0.1,0.9,0.2l0.4-0.9c-0.4-0.2-0.8-0.3-1.2-0.3
		c-1.1-0.1-2.1,0.7-2.2,1.8c0,0.1,0,0.2,0,0.3c-0.1,1.1,0.7,2,1.7,2.1C28,10.1,28.2,10.1,28.3,10.1 M31.9,9.6c-0.5,0-1,0.1-1.3,0.3
		l0.4,0.9c0.3-0.1,0.6-0.2,0.9-0.2c0.6-0.1,1.1,0.3,1.1,0.9c0,0.1,0,0.2,0,0.3c0.1,0.6-0.4,1.1-1,1.1c-0.1,0-0.2,0-0.2,0
		c-0.3,0-0.6-0.1-0.9-0.2l-0.4,0.9c0.4,0.2,0.8,0.4,1.1,0.4c1.1,0.1,2.2-0.7,2.3-1.8c0-0.1,0-0.2,0-0.3c0.1-1.1-0.7-2-1.7-2.1
		C32.1,9.6,32,9.7,31.9,9.6 M30.3,11.9c0-0.6-0.2-1.1-0.5-1.6l-1,0.4c0.2,0.4,0.2,0.7,0.3,1.1c0,0.8-0.4,1.1-1.1,1.1
		s-1.1-0.5-1.1-1.1c0-0.4,0.1-0.8,0.3-1.1l-0.9-0.4c-0.3,0.5-0.4,1.1-0.5,1.6c0,1.1,0.8,1.9,1.8,1.9c0.1,0,0.2,0,0.3,0
		c1.1,0.1,2-0.6,2.1-1.6C30.3,12.1,30.3,12,30.3,11.9"/>
</g>
</svg>
