<?xml version="1.0" encoding="utf-8"?>
<!-- Generator: Adobe Illustrator 16.0.0, SVG Export Plug-In . SVG Version: 6.00 Build 0)  -->
<!DOCTYPE svg PUBLIC "-//W3C//DTD SVG 1.1//EN" "http://www.w3.org/Graphics/SVG/1.1/DTD/svg11.dtd">
<svg version="1.1" id="variant_po-malko_logo" xmlns="http://www.w3.org/2000/svg" xmlns:xlink="http://www.w3.org/1999/xlink"
	 x="0px" y="0px" width="305.353px" height="210.706px" viewBox="0 0 305.353 210.706" enable-background="new 0 0 305.353 210.706"
	 xml:space="preserve">
<g>
	<path fill="#FF7D1E" d="M145.701,22.848c0,5.595,1.793,12.986,5.147,19.256l10.756-4.48c-1.792-3.583-2.91-8.955-2.91-12.54
		c0-8.733,4.26-13.888,12.09-13.888c7.844,0,12.098,5.155,12.098,13.888c0,3.584-1.122,8.957-2.915,12.54l10.753,4.48
		c3.349-6.27,5.139-13.661,5.139-19.256C195.858,8.063,185.341,0,170.784,0C156.224,0,145.701,8.063,145.701,22.848L145.701,22.848z
		 M128.235,49.266c5.147,0,10.745-1.344,15.899-3.805l-4.038-9.627c-2.903,1.342-6.49,2.24-10.073,2.24
		c-8.729,0-13.435-4.485-13.435-13.437c0-8.737,5.149-13.222,13.881-13.222c4.031,0,7.17,1.128,9.406,2.245l4.035-10.303
		C140.771,1.569,135.397,0,129.802,0c-15.458,0-27.326,8.514-27.326,24.638C102.477,41.432,112.108,49.266,128.235,49.266
		L128.235,49.266z M170.115,44.143c-5.378,0-10.751,1.342-15.897,3.807l4.03,9.628c2.9-1.341,6.489-2.235,10.07-2.235
		c8.736,0,13.441,4.479,13.441,13.432c0,8.738-5.155,13.216-13.884,13.216c-4.035,0-7.174-1.124-9.404-2.239l-4.033,9.629
		c3.142,2.243,8.516,4.029,14.105,4.029c15.455,0,27.314-8.507,27.314-24.635C195.858,51.977,186.239,44.143,170.115,44.143
		L170.115,44.143z M152.644,70.57c0-5.6-1.795-12.993-5.149-19.262l-10.755,4.479c1.795,3.582,2.915,8.959,2.915,12.543
		c0,8.734-4.258,13.883-12.09,13.883c-7.841,0-12.099-5.148-12.099-13.883c0-3.584,1.123-8.961,2.911-12.543l-10.745-4.479
		c-3.36,6.269-5.155,13.662-5.155,19.262c0,14.775,10.527,22.838,25.088,22.838C142.12,93.408,152.644,85.346,152.644,70.57
		L152.644,70.57z"/>
	<g>
		<g>
			<path fill="#FF7D1E" d="M18.701,144.907c0-9.514,7.039-14.244,14.463-14.244c5.828,0,9.019,2.64,9.019,6.269
				c0,1.43-0.22,2.42-0.55,3.135l-4.729,0.439v-0.824c0-3.245-1.21-4.344-4.235-4.344c-4.234,0-7.588,3.081-7.588,9.129
				c0,6.598,3.244,9.623,8.139,9.623c3.024,0,5.885-1.1,7.589-2.145h0.44l-0.66,4.729c-2.42,1.705-6.049,2.365-8.249,2.365
				C24.199,159.04,18.701,154.42,18.701,144.907z"/>
			<path fill="#FF7D1E" d="M48.564,135.942l-4.619,0.66l0.879-5.223l6.49-0.716h3.465l-0.386,4.015h0.386
				c1.648-2.584,4.179-4.015,6.764-4.015c1.154,0,2.364,0.22,2.859,0.55l-1.265,6.27c-0.55-0.496-1.485-0.991-2.86-0.991
				c-2.475,0-4.234,0.715-5.498,2.53V158.6h-6.215V135.942z"/>
			<path fill="#FF7D1E" d="M65.394,144.907c0-9.239,6.765-14.244,13.859-14.244c6.104,0,10.283,2.97,10.283,8.14
				c0,5.553-3.3,7.424-8.249,7.424h-9.679c0.221,5.498,3.52,7.863,8.139,7.863c2.585,0,5.39-0.66,7.534-1.814h0.44l-0.44,4.949
				c-2.2,1.32-6.269,1.814-8.524,1.814C71.059,159.04,65.394,154.42,65.394,144.907z M71.774,142.157h9.184
				c2.034,0,3.024-0.439,3.024-2.969c0-2.201-1.265-3.85-4.729-3.85C75.898,135.338,72.708,137.208,71.774,142.157z"/>
			<path fill="#FF7D1E" d="M93.169,145.401c0-9.678,7.039-14.738,14.408-14.738c1.705,0,3.41,0.386,4.619,0.935v-9.073l-5.225,0.88
				l0.715-5.17l8.25-0.879h2.914c-0.275,1.375-0.494,4.398-0.494,6.214v28.707c0,1.705,0.494,2.145,2.199,2.145h2.145l-1.045,4.07
				c-0.99,0.328-2.529,0.549-3.85,0.549c-2.42,0-3.959-0.99-4.729-2.859h-0.441c-1.814,1.76-4.453,2.859-7.918,2.859
				C98.228,159.04,93.169,154.53,93.169,145.401z M112.197,151.891v-15.232c-0.936-0.716-2.254-1.266-4.234-1.266
				c-4.785,0-8.359,3.081-8.359,9.844c0,6.049,2.586,8.854,6.654,8.854C108.732,154.09,110.712,153.211,112.197,151.891z"/>
			<path fill="#FF7D1E" d="M128.589,152.661v-16.718l-4.619,0.66l0.879-5.223l6.875-0.716h3.684
				c-0.275,1.21-0.605,5.225-0.605,6.929v14.684c0,1.705,0.275,2.145,1.98,2.145h2.529l-0.936,4.07
				c-0.934,0.328-3.133,0.549-4.398,0.549C130.238,159.04,128.589,156.84,128.589,152.661z M128.863,120.82
				c0-2.146,1.432-3.465,3.576-3.465c2.199,0,3.629,1.319,3.629,3.465c0,2.145-1.43,3.464-3.629,3.464
				C130.294,124.284,128.863,122.965,128.863,120.82z"/>
			<path fill="#FF7D1E" d="M142.283,157.334l0.826-5.555h0.439c1.924,1.266,4.785,2.42,7.808,2.42c3.465,0,6.049-0.934,6.049-3.463
				c0-2.365-2.033-2.916-4.289-3.41l-3.08-0.66c-4.507-0.99-7.369-3.135-7.369-7.863c0-5.17,4.564-8.14,10.779-8.14
				c3.795,0,7.148,0.716,9.184,1.649l-1.264,5.061h-0.441c-1.703-1.101-4.289-1.871-7.039-1.871c-2.748,0-5.004,0.55-5.004,2.859
				c0,2.475,1.266,2.805,3.795,3.465l3.74,0.826c4.123,0.934,7.148,2.805,7.148,7.697c0,5.83-5.225,8.689-12.209,8.689
				C148.058,159.04,144.427,158.325,142.283,157.334z"/>
			<path fill="#FF7D1E" d="M167.911,157.334l0.826-5.555h0.439c1.924,1.266,4.785,2.42,7.809,2.42c3.465,0,6.049-0.934,6.049-3.463
				c0-2.365-2.033-2.916-4.289-3.41l-3.08-0.66c-4.508-0.99-7.369-3.135-7.369-7.863c0-5.17,4.564-8.14,10.779-8.14
				c3.795,0,7.148,0.716,9.184,1.649l-1.264,5.061h-0.441c-1.703-1.101-4.289-1.871-7.039-1.871c-2.748,0-5.004,0.55-5.004,2.859
				c0,2.475,1.266,2.805,3.795,3.465l3.74,0.826c4.123,0.934,7.148,2.805,7.148,7.697c0,5.83-5.225,8.689-12.209,8.689
				C173.687,159.04,170.056,158.325,167.911,157.334z"/>
			<path fill="#FF7D1E" d="M196.456,152.661v-16.718l-4.619,0.66l0.881-5.223l6.873-0.716h3.686
				c-0.275,1.21-0.605,5.225-0.605,6.929v14.684c0,1.705,0.275,2.145,1.979,2.145h2.531l-0.936,4.07
				c-0.936,0.328-3.135,0.549-4.4,0.549C198.106,159.04,196.456,156.84,196.456,152.661z M196.731,120.82
				c0-2.146,1.43-3.465,3.574-3.465c2.199,0,3.629,1.319,3.629,3.465c0,2.145-1.43,3.464-3.629,3.464
				C198.161,124.284,196.731,122.965,196.731,120.82z"/>
			<path fill="#FF7D1E" d="M246.776,152.661v-9.844c0-4.674-1.1-6.985-5.279-6.985c-2.035,0-4.07,0.936-5.609,2.53
				c0.109,1.045,0.109,2.09,0.109,3.301V158.6h-5.994v-16.004c0-4.674-0.715-6.874-5.059-6.874c-2.09,0-4.234,1.209-5.664,2.86
				V158.6h-6.215v-22.658l-4.619,0.66l0.881-5.223l6.488-0.716h3.465l-0.385,3.685h0.385c1.32-1.76,4.51-3.685,7.754-3.685
				c3.684,0,6.27,1.101,7.754,4.124c1.594-1.869,4.564-3.959,8.193-3.959c6.16,0,9.953,2.75,9.953,11.053v10.395
				c0,1.705,0.275,2.145,1.98,2.145h2.145l-0.824,4.07c-0.936,0.328-2.75,0.549-4.125,0.549
				C248.536,159.04,246.776,156.84,246.776,152.661z"/>
			<path fill="#FF7D1E" d="M273.069,159.04c-8.25,0-13.584-5.17-13.584-14.188c0-8.964,5.555-14.189,13.584-14.189
				c8.193,0,13.582,4.95,13.582,14.244C286.651,153.76,280.878,159.04,273.069,159.04z M273.069,135.558
				c-4.676,0-7.15,3.41-7.15,9.294s2.475,9.293,7.15,9.293c4.674,0,7.148-3.408,7.148-9.293S277.743,135.558,273.069,135.558z"/>
		</g>
	</g>
	<g>
		<path fill="#0055A5" d="M0,185.739c0-9.898,7.149-15.014,15.453-15.014c4.18,0,8.084,1.045,10.174,1.76
			c-0.385,0.936-0.605,3.74-0.605,6.27v18.918c0,9.568-6.434,13.033-14.298,13.033c-1.155,0-5.004-0.33-7.809-1.43l-0.44-5.17h0.44
			c1.705,0.715,5.004,1.596,8.029,1.596c5.06,0,7.864-2.256,7.864-7.039v-2.09c-1.76,1.594-4.29,2.529-7.424,2.529
			C5.059,199.102,0,194.592,0,185.739z M18.808,191.954v-15.838c-0.935-0.33-2.145-0.605-3.41-0.605
			c-5.279,0-9.019,3.024-9.019,10.009c0,6.049,2.475,8.634,6.709,8.634C15.343,194.153,17.323,193.273,18.808,191.954z"/>
		<path fill="#0055A5" d="M44.548,199.102c-8.249,0-13.583-5.17-13.583-14.188c0-8.965,5.554-14.189,13.583-14.189
			c8.194,0,13.583,4.95,13.583,14.244C58.131,193.823,52.356,199.102,44.548,199.102z M44.548,175.62
			c-4.674,0-7.149,3.41-7.149,9.295c0,5.884,2.475,9.293,7.149,9.293s7.149-3.409,7.149-9.293
			C51.697,179.03,49.222,175.62,44.548,175.62z"/>
		<path fill="#0055A5" d="M82.993,210.706c-2.585,0-5.719-0.55-7.809-1.76l-0.44-5.114h0.44c1.869,1.045,4.839,1.925,7.863,1.925
			c5.225,0,8.47-2.475,8.47-6.434c0-4.29-3.08-6.436-8.194-6.436h-3.739l-0.825-4.674h0.44c0.989,0.165,2.364,0.221,3.464,0.221
			h3.465c1.979-0.936,3.85-3.355,3.85-6.709c0-2.971-1.265-6.324-5.335-6.324c-3.024,0-4.234,1.1-4.234,4.344v0.824l-4.729-0.439
			c-0.33-0.715-0.551-1.705-0.551-3.135c0-3.629,3.19-6.27,9.129-6.27c8.799,0,11.879,4.895,11.879,9.955
			c0,3.904-2.585,7.588-5.499,9.073c4.619,1.595,7.368,5.114,7.368,9.788C98.006,207.131,91.022,210.706,82.993,210.706z"/>
		<path fill="#0055A5" d="M121.711,196.243h-0.44c-1.814,1.76-4.399,2.859-7.809,2.859c-6.6,0-11.438-4.455-11.438-13.254
			c0-9.732,7.589-15.123,15.562-15.123c4.18,0,7.974,1.045,10.064,1.76c-0.439,1.211-0.605,3.74-0.605,6.27v13.584
			c0,1.705,0.439,2.145,2.146,2.145h2.035l-0.936,4.069c-0.936,0.329-2.476,0.55-3.794,0.55
			C124.185,199.102,122.535,198.278,121.711,196.243z M120.831,191.898v-15.894c-0.936-0.329-2.146-0.549-3.354-0.549
			c-5.06,0-9.074,3.465-9.074,10.063c0,6.159,2.64,8.524,6.654,8.524C117.312,194.043,119.346,193.217,120.831,191.898z"/>
		<path fill="#0055A5" d="M154.876,192.723v-9.954c0-4.619-1.32-6.983-5.609-6.983c-2.365,0-4.51,1.209-5.939,2.859v20.018h-6.16
			v-22.658l-4.674,0.66l0.881-5.224l6.488-0.716h3.465l-0.385,3.686h0.385c1.65-1.98,4.51-3.686,8.029-3.686
			c5.609,0,9.678,2.641,9.678,10.889v10.725c0,1.705,0.385,2.145,2.145,2.145h2.145l-1.045,4.069
			c-0.934,0.329-2.693,0.55-4.068,0.55C156.636,199.102,154.876,196.903,154.876,192.723z"/>
		<path fill="#0055A5" d="M185.292,176.885l7.918,21.281v0.496h-6.654l-7.203-20.843l-1.926,4.509
			c-1.705,4.07-3.85,9.734-4.619,16.334h-5.828v-0.496c1.045-6.324,4.178-14.022,6.488-18.972l2.695-5.774
			c0.273-0.605,0.549-1.375,0.715-2.145l3.135-0.551h3.629C183.862,172.76,184.632,175.125,185.292,176.885z"/>
		<path fill="#0055A5" d="M214.331,196.243h-0.441c-1.814,1.76-4.398,2.859-7.809,2.859c-6.6,0-11.438-4.455-11.438-13.254
			c0-9.732,7.588-15.123,15.562-15.123c4.18,0,7.973,1.045,10.062,1.76c-0.439,1.211-0.604,3.74-0.604,6.27v13.584
			c0,1.705,0.439,2.145,2.145,2.145h2.035l-0.936,4.069c-0.936,0.329-2.475,0.55-3.795,0.55
			C216.806,199.102,215.155,198.278,214.331,196.243z M213.45,191.898v-15.894c-0.936-0.329-2.145-0.549-3.354-0.549
			c-5.061,0-9.074,3.465-9.074,10.063c0,6.159,2.639,8.524,6.654,8.524C209.931,194.043,211.966,193.217,213.45,191.898z"/>
		<path fill="#0055A5" d="M263.442,192.723v-9.844c0-4.674-1.1-6.984-5.279-6.984c-2.035,0-4.07,0.936-5.609,2.529
			c0.109,1.045,0.109,2.09,0.109,3.301v16.938h-5.994v-16.004c0-4.674-0.715-6.873-5.059-6.873c-2.09,0-4.234,1.209-5.664,2.859
			v20.018h-6.215v-22.658l-4.619,0.66l0.881-5.224l6.488-0.716h3.465l-0.385,3.686h0.385c1.32-1.76,4.51-3.686,7.754-3.686
			c3.684,0,6.27,1.101,7.754,4.125c1.594-1.869,4.564-3.959,8.193-3.959c6.16,0,9.953,2.75,9.953,11.053v10.395
			c0,1.705,0.275,2.145,1.98,2.145h2.145l-0.824,4.069c-0.936,0.329-2.75,0.55-4.125,0.55
			C265.202,199.102,263.442,196.903,263.442,192.723z"/>
		<path fill="#0055A5" d="M295.839,196.243h-0.439c-1.814,1.76-4.4,2.859-7.809,2.859c-6.6,0-11.439-4.455-11.439-13.254
			c0-9.732,7.59-15.123,15.562-15.123c4.18,0,7.975,1.045,10.064,1.76c-0.439,1.211-0.605,3.74-0.605,6.27v13.584
			c0,1.705,0.439,2.145,2.145,2.145h2.035l-0.936,4.069c-0.934,0.329-2.475,0.55-3.793,0.55
			C298.313,199.102,296.663,198.278,295.839,196.243z M294.96,191.898v-15.894c-0.936-0.329-2.146-0.549-3.355-0.549
			c-5.059,0-9.074,3.465-9.074,10.063c0,6.159,2.641,8.524,6.654,8.524C291.44,194.043,293.474,193.217,294.96,191.898z"/>
	</g>
</g>
</svg>
