<?xml version="1.0" encoding="utf-8"?>
<!-- Generator: Adobe Illustrator 21.0.0, SVG Export Plug-In . SVG Version: 6.00 Build 0)  -->
<svg version="1.1" id="Layer_1" xmlns="http://www.w3.org/2000/svg" xmlns:xlink="http://www.w3.org/1999/xlink" x="0px" y="0px"
	 viewBox="0 0 50 50" style="enable-background:new 0 0 50 50;" xml:space="preserve">
<style type="text/css">
	.st0{fill:#FF8935;}
	.st1{fill:#186AB7;}
</style>
<g>
	<g>
		<path class="st0" d="M17.8,11.9h-3.9c-0.7,0-1.1-0.5-1.1-1.1s0.5-1.1,1.1-1.1h3.9c0.7,0,1.1,0.5,1.1,1.1S18.4,11.9,17.8,11.9z"/>
	</g>
	<g>
		<path class="st0" d="M36.5,11.9H22.9c-0.7,0-1.1-0.5-1.1-1.1s0.5-1.1,1.1-1.1h13.6c0.7,0,1.1,0.5,1.1,1.1S37.2,11.9,36.5,11.9z"/>
	</g>
	<path class="st1" d="M36.7,27.9c0-6.5-5.3-11.8-11.8-11.8s-11.8,5.3-11.8,11.8s5.3,11.8,11.8,11.8c1.7,0,3.4-0.4,4.9-1v7.2L25.7,44
		c-0.3-0.1-0.7-0.1-0.9,0l-4.5,1.9v-3.4c0-0.7-0.5-1.1-1.1-1.1S18,41.8,18,42.5v5.1c0,0.4,0.2,0.8,0.5,0.9c0.2,0.1,0.4,0.2,0.7,0.2
		c0.2,0,0.3,0,0.5-0.1l5.6-2.4l5.3,2.4c0.4,0.2,0.8,0.1,1-0.1c0.3-0.2,0.5-0.6,0.5-0.9V37.2C34.9,35.1,36.7,31.7,36.7,27.9z
		 M15.4,27.9c0-5.2,4.3-9.5,9.5-9.5s9.5,4.3,9.5,9.5c0,3.1-1.5,5.9-3.9,7.7c-0.2,0.1-0.3,0.2-0.5,0.3c-1.5,0.9-3.2,1.5-5.2,1.5
		C19.7,37.4,15.4,33.2,15.4,27.9z"/>
	<g>
		<path class="st1" d="M46.1,32.6h-6.7c-0.7,0-1.1-0.5-1.1-1.1s0.5-1.1,1.1-1.1h4.5V3.5H6v26.8h4.9c0.7,0,1.1,0.5,1.1,1.1
			c0,0.7-0.5,1.1-1.1,1.1H3.7V1.3h42.4C46.1,1.3,46.1,32.6,46.1,32.6z"/>
	</g>
	<g>
		<path class="st0" d="M21.6,33.8c-0.2,0-0.4-0.1-0.6-0.2c-0.3-0.2-0.4-0.5-0.4-0.8l0.1-3.3l-2-2.7c-0.2-0.3-0.3-0.6-0.2-0.9
			s0.3-0.5,0.6-0.6l3.1-0.9l1.9-2.8c0.4-0.5,1.1-0.5,1.5,0l1.9,2.8l3.1,0.9c0.3,0.1,0.5,0.3,0.6,0.6c0.1,0.3,0,0.6-0.2,0.9l-2,2.7
			l0.1,3.3c0,0.3-0.1,0.6-0.4,0.8c-0.3,0.2-0.6,0.2-0.9,0.1l-2.9-1l-3.1,1.1C21.8,33.8,21.7,33.8,21.6,33.8z M25,30.8
			c0.1,0,0.2,0,0.3,0.1l2.2,0.8l-0.1-2.3c0-0.2,0.1-0.4,0.2-0.6L29,27l-2.2-0.7c-0.2-0.1-0.4-0.2-0.5-0.4L25,24l-1.3,1.9
			c-0.1,0.2-0.3,0.3-0.5,0.4L21,26.9l1.4,1.8c0.1,0.2,0.2,0.4,0.2,0.6l-0.1,2.4l2.2-0.8C24.8,30.8,24.9,30.8,25,30.8z"/>
	</g>
</g>
</svg>
