<?xml version="1.0" encoding="utf-8"?>
<!-- Generator: Adobe Illustrator 21.0.2, SVG Export Plug-In . SVG Version: 6.00 Build 0)  -->
<svg version="1.1" id="Isolation_Mode" xmlns="http://www.w3.org/2000/svg" xmlns:xlink="http://www.w3.org/1999/xlink" x="0px"
	 y="0px" viewBox="0 0 88.1 88.2" style="enable-background:new 0 0 88.1 88.2;" xml:space="preserve">
<style type="text/css">
	.st0{opacity:0.5;fill:#1466B4;}
</style>
<path class="st0" d="M40.8,21.6c0,5.3,1.7,12.3,4.9,18.2l10.2-4.2c-1.7-3.4-2.7-8.5-2.7-11.8c0-8.2,4-13.1,11.4-13.1
	S76,15.6,76,23.8c0,3.4-1.1,8.5-2.8,11.8l10.2,4.2c3.2-5.9,4.9-12.9,4.9-18.2C88.1,7.6,78.2,0,64.5,0C50.7,0,40.8,7.6,40.8,21.6
	 M24.3,46.5c4.9,0,10.1-1.3,15-3.6l-3.8-9.1c-2.7,1.3-6.1,2.1-9.5,2.1c-8.2,0-12.7-4.2-12.7-12.7c0-8.2,4.9-12.5,13.1-12.5
	c3.8,0,6.8,1.1,8.9,2.1l3.8-9.7c-3-1.7-8-3.2-13.3-3.2C11.2,0,0,8,0,23.3C0,39.1,9.1,46.5,24.3,46.5 M63.8,41.7
	c-5.1,0-10.1,1.3-15,3.6l3.8,9.1c2.7-1.3,6.1-2.1,9.5-2.1c8.2,0,12.7,4.2,12.7,12.7c0,8.2-4.9,12.5-13.1,12.5
	c-3.8,0-6.8-1.1-8.9-2.1L49,84.5c3,2.1,8,3.8,13.3,3.8c14.6,0,25.8-8,25.8-23.3C88.1,49.1,79.1,41.7,63.8,41.7 M47.4,66.6
	c0-5.3-1.7-12.3-4.9-18.2l-10.2,4.2c1.7,3.4,2.8,8.5,2.8,11.8c0,8.2-4,13.1-11.4,13.1s-11.4-4.9-11.4-13.1c0-3.4,1.1-8.5,2.8-11.8
	L4.9,48.4C1.7,54.3,0,61.3,0,66.6c0,13.9,9.9,21.6,23.7,21.6C37.4,88.2,47.4,80.6,47.4,66.6"/>
</svg>
