<?xml version="1.0" encoding="utf-8"?>
<!-- Generator: Adobe Illustrator 16.0.0, SVG Export Plug-In . SVG Version: 6.00 Build 0)  -->
<!DOCTYPE svg PUBLIC "-//W3C//DTD SVG 1.1//EN" "http://www.w3.org/Graphics/SVG/1.1/DTD/svg11.dtd">
<svg version="1.1" id="variant_po-malko_logo" xmlns="http://www.w3.org/2000/svg" xmlns:xlink="http://www.w3.org/1999/xlink"
	 x="0px" y="0px" width="267.951px" height="199.102px" viewBox="0 0 267.951 199.102" enable-background="new 0 0 267.951 199.102"
	 xml:space="preserve">
<g>
	<path fill="#FF7D1E" d="M127,22.848c0,5.595,1.793,12.986,5.147,19.256l10.756-4.479c-1.793-3.583-2.91-8.955-2.91-12.54
		c0-8.733,4.26-13.889,12.09-13.889c7.844,0,12.098,5.155,12.098,13.889c0,3.584-1.121,8.957-2.914,12.54l10.752,4.479
		c3.35-6.27,5.14-13.661,5.14-19.256C177.158,8.063,166.64,0,152.083,0C137.522,0,127,8.063,127,22.848L127,22.848z M109.535,49.266
		c5.147,0,10.745-1.344,15.899-3.805l-4.038-9.627c-2.903,1.342-6.49,2.24-10.073,2.24c-8.729,0-13.435-4.485-13.435-13.438
		c0-8.737,5.149-13.222,13.881-13.222c4.031,0,7.17,1.128,9.406,2.245l4.035-10.304C122.07,1.569,116.696,0,111.102,0
		C95.644,0,83.776,8.514,83.776,24.638C83.776,41.432,93.407,49.266,109.535,49.266L109.535,49.266z M151.415,44.143
		c-5.378,0-10.751,1.342-15.896,3.808l4.029,9.628c2.9-1.342,6.489-2.235,10.07-2.235c8.736,0,13.441,4.479,13.441,13.432
		c0,8.738-5.156,13.217-13.885,13.217c-4.035,0-7.174-1.124-9.404-2.239l-4.033,9.629c3.143,2.243,8.517,4.029,14.105,4.029
		c15.455,0,27.314-8.508,27.314-24.636C177.158,51.977,167.539,44.143,151.415,44.143L151.415,44.143z M133.943,70.57
		c0-5.6-1.795-12.992-5.149-19.262l-10.755,4.479c1.795,3.582,2.915,8.959,2.915,12.543c0,8.733-4.258,13.883-12.09,13.883
		c-7.841,0-12.099-5.148-12.099-13.883c0-3.584,1.123-8.961,2.911-12.543l-10.745-4.479c-3.36,6.27-5.155,13.662-5.155,19.262
		c0,14.775,10.527,22.839,25.088,22.839C123.419,93.408,133.943,85.346,133.943,70.57L133.943,70.57z"/>
	<g>
		<g>
			<path fill="#FF7D1E" d="M0,144.907c0-9.515,7.039-14.244,14.463-14.244c5.828,0,9.019,2.64,9.019,6.269
				c0,1.43-0.22,2.42-0.55,3.135l-4.729,0.439v-0.824c0-3.245-1.21-4.344-4.235-4.344c-4.234,0-7.588,3.081-7.588,9.129
				c0,6.598,3.244,9.623,8.139,9.623c3.024,0,5.885-1.1,7.589-2.146h0.44l-0.66,4.729c-2.42,1.705-6.049,2.365-8.249,2.365
				C5.498,159.04,0,154.42,0,144.907z"/>
			<path fill="#FF7D1E" d="M29.863,135.942l-4.619,0.66l0.879-5.223l6.49-0.716h3.465l-0.386,4.015h0.386
				c1.648-2.584,4.179-4.015,6.764-4.015c1.154,0,2.364,0.22,2.859,0.55l-1.265,6.27c-0.55-0.496-1.485-0.99-2.86-0.99
				c-2.475,0-4.234,0.715-5.498,2.529V158.6h-6.215V135.942z"/>
			<path fill="#FF7D1E" d="M46.693,144.907c0-9.239,6.765-14.244,13.859-14.244c6.104,0,10.283,2.97,10.283,8.14
				c0,5.553-3.3,7.424-8.249,7.424h-9.679c0.221,5.498,3.52,7.863,8.139,7.863c2.585,0,5.39-0.66,7.534-1.814h0.44l-0.44,4.949
				c-2.2,1.32-6.269,1.814-8.524,1.814C52.358,159.04,46.693,154.42,46.693,144.907z M53.073,142.157h9.184
				c2.034,0,3.024-0.439,3.024-2.97c0-2.201-1.265-3.85-4.729-3.85C57.197,135.338,54.008,137.208,53.073,142.157z"/>
			<path fill="#FF7D1E" d="M74.469,145.401c0-9.678,7.039-14.737,14.408-14.737c1.705,0,3.41,0.386,4.619,0.935v-9.073l-5.225,0.88
				l0.715-5.17l8.25-0.879h2.914c-0.275,1.375-0.494,4.398-0.494,6.214v28.707c0,1.705,0.494,2.146,2.199,2.146H104l-1.045,4.07
				c-0.99,0.327-2.529,0.549-3.85,0.549c-2.42,0-3.959-0.99-4.729-2.859h-0.441c-1.814,1.76-4.453,2.859-7.918,2.859
				C79.527,159.04,74.469,154.531,74.469,145.401z M93.496,151.891v-15.231c-0.936-0.717-2.254-1.267-4.234-1.267
				c-4.785,0-8.359,3.081-8.359,9.844c0,6.05,2.586,8.854,6.654,8.854C90.031,154.09,92.012,153.211,93.496,151.891z"/>
			<path fill="#FF7D1E" d="M109.889,152.661v-16.719l-4.619,0.66l0.879-5.223l6.875-0.716h3.684
				c-0.275,1.21-0.605,5.225-0.605,6.929v14.684c0,1.705,0.275,2.146,1.98,2.146h2.529l-0.936,4.07
				c-0.934,0.327-3.133,0.549-4.398,0.549C111.537,159.04,109.889,156.84,109.889,152.661z M110.162,120.82
				c0-2.146,1.432-3.465,3.576-3.465c2.199,0,3.629,1.319,3.629,3.465s-1.43,3.465-3.629,3.465
				C111.594,124.284,110.162,122.965,110.162,120.82z"/>
			<path fill="#FF7D1E" d="M123.582,157.334l0.826-5.556h0.439c1.924,1.267,4.785,2.421,7.808,2.421
				c3.465,0,6.049-0.935,6.049-3.464c0-2.364-2.033-2.916-4.289-3.409l-3.08-0.66c-4.507-0.99-7.369-3.135-7.369-7.863
				c0-5.17,4.564-8.14,10.779-8.14c3.795,0,7.148,0.716,9.184,1.648l-1.264,5.062h-0.441c-1.703-1.102-4.289-1.871-7.039-1.871
				c-2.748,0-5.003,0.55-5.003,2.858c0,2.476,1.266,2.806,3.795,3.466l3.74,0.825c4.123,0.935,7.148,2.806,7.148,7.697
				c0,5.83-5.225,8.689-12.209,8.689C129.357,159.04,125.727,158.325,123.582,157.334z"/>
			<path fill="#FF7D1E" d="M149.21,157.334l0.826-5.556h0.439c1.924,1.267,4.784,2.421,7.809,2.421c3.465,0,6.049-0.935,6.049-3.464
				c0-2.364-2.033-2.916-4.289-3.409l-3.08-0.66c-4.508-0.99-7.369-3.135-7.369-7.863c0-5.17,4.564-8.14,10.779-8.14
				c3.795,0,7.148,0.716,9.184,1.648l-1.264,5.062h-0.441c-1.703-1.102-4.289-1.871-7.039-1.871c-2.748,0-5.004,0.55-5.004,2.858
				c0,2.476,1.267,2.806,3.795,3.466l3.74,0.825c4.123,0.935,7.148,2.806,7.148,7.697c0,5.83-5.225,8.689-12.209,8.689
				C154.985,159.04,151.354,158.325,149.21,157.334z"/>
			<path fill="#FF7D1E" d="M177.755,152.661v-16.719l-4.619,0.66l0.881-5.223l6.873-0.716h3.687
				c-0.275,1.21-0.604,5.225-0.604,6.929v14.684c0,1.705,0.274,2.146,1.979,2.146h2.531l-0.937,4.07
				c-0.937,0.327-3.135,0.549-4.399,0.549C179.406,159.04,177.755,156.84,177.755,152.661z M178.031,120.82
				c0-2.146,1.43-3.465,3.573-3.465c2.199,0,3.629,1.319,3.629,3.465s-1.43,3.465-3.629,3.465
				C179.46,124.284,178.031,122.965,178.031,120.82z"/>
			<path fill="#FF7D1E" d="M228.076,152.661v-9.845c0-4.674-1.101-6.984-5.279-6.984c-2.034,0-4.069,0.936-5.608,2.529
				c0.108,1.046,0.108,2.091,0.108,3.302V158.6h-5.993v-16.004c0-4.674-0.716-6.874-5.06-6.874c-2.091,0-4.234,1.209-5.664,2.86
				V158.6h-6.215v-22.658l-4.619,0.66l0.881-5.223l6.488-0.716h3.465l-0.386,3.685h0.386c1.319-1.76,4.51-3.685,7.754-3.685
				c3.685,0,6.271,1.101,7.754,4.124c1.595-1.869,4.563-3.959,8.192-3.959c6.16,0,9.953,2.75,9.953,11.053v10.395
				c0,1.705,0.275,2.146,1.98,2.146h2.145l-0.823,4.07c-0.937,0.327-2.75,0.549-4.125,0.549
				C229.835,159.04,228.076,156.84,228.076,152.661z"/>
			<path fill="#FF7D1E" d="M254.369,159.04c-8.25,0-13.584-5.17-13.584-14.188c0-8.964,5.555-14.188,13.584-14.188
				c8.192,0,13.582,4.949,13.582,14.244C267.951,153.76,262.177,159.04,254.369,159.04z M254.369,135.558
				c-4.677,0-7.149,3.41-7.149,9.294s2.475,9.293,7.149,9.293c4.674,0,7.147-3.408,7.147-9.293S259.042,135.558,254.369,135.558z"/>
		</g>
	</g>
	<g>
		<path fill="#0055A5" d="M91.208,192.723v-9.955c0-4.619-1.319-6.981-5.609-6.981c-2.364,0-4.509,1.209-5.939,2.858v20.019H73.5
			v-22.658l-4.675,0.66l0.88-5.226l6.489-0.715h3.464l-0.385,3.687h0.385c1.65-1.98,4.51-3.687,8.029-3.687
			c5.609,0,9.679,2.642,9.679,10.89v10.725c0,1.705,0.386,2.145,2.146,2.145h2.145l-1.045,4.068c-0.936,0.33-2.695,0.551-4.07,0.551
			C92.967,199.102,91.208,196.903,91.208,192.723z"/>
		<path fill="#0055A5" d="M121.624,176.885l7.918,21.281v0.496h-6.653l-7.204-20.845l-1.925,4.511
			c-1.704,4.069-3.85,9.733-4.619,16.334h-5.829v-0.496c1.045-6.324,4.18-14.023,6.488-18.974l2.695-5.772
			c0.275-0.605,0.55-1.375,0.715-2.146l3.135-0.551h3.629C120.194,172.76,120.963,175.125,121.624,176.885z"/>
		<path fill="#0055A5" d="M134.165,198.663v-22.658l-4.619,0.66l0.879-5.226l6.875-0.715h3.629c-0.275,1.211-0.604,5.226-0.604,6.93
			v4.841h5.225c0.989-7.425,6.27-11.771,13.197-11.771c8.029,0,13.419,4.949,13.419,14.244c0,8.854-5.774,14.133-13.419,14.133
			c-7.424,0-12.482-4.344-13.253-12.098h-5.169v11.658L134.165,198.663L134.165,198.663z M165.729,184.915
			c0-5.885-2.475-9.295-6.983-9.295c-4.675,0-7.147,3.41-7.147,9.295c0,5.883,2.475,9.293,7.147,9.293
			C163.255,194.208,165.729,190.797,165.729,184.915z"/>
		<path fill="#0055A5" d="M175.634,184.969c0-9.514,7.039-14.244,14.465-14.244c5.828,0,9.019,2.642,9.019,6.271
			c0,1.43-0.22,2.42-0.55,3.135l-4.729,0.438v-0.823c0-3.244-1.21-4.345-4.233-4.345c-4.234,0-7.59,3.078-7.59,9.127
			c0,6.601,3.244,9.625,8.139,9.625c3.025,0,5.885-1.1,7.59-2.145h0.439l-0.66,4.729c-2.42,1.705-6.049,2.365-8.248,2.365
			C181.134,199.102,175.634,194.483,175.634,184.969z"/>
	</g>
</g>
</svg>
