<?xml version="1.0" encoding="utf-8"?>
<!-- Generator: Adobe Illustrator 21.0.0, SVG Export Plug-In . SVG Version: 6.00 Build 0)  -->
<svg version="1.1" id="Layer_1" xmlns="http://www.w3.org/2000/svg" xmlns:xlink="http://www.w3.org/1999/xlink" x="0px" y="0px"
	 viewBox="0 0 50 50" style="enable-background:new 0 0 50 50;" xml:space="preserve">
<style type="text/css">
	.st0{fill:#186AB7;}
	.st1{fill:#FF8935;}
</style>
<g>
	<path class="st0" d="M42.8,6.4h-2.6V0.9H9.7v5.5H7.1C3.7,6.4,1,9.1,1,12.5s2.7,6.1,6.1,6.1h2.7c1,7.1,6.8,12.7,14,13.3v14.8H13.5
		v2.1h22.9v-2.1H26V31.8c7.2-0.5,13.1-6.1,14-13.3h2.7c3.4,0,6.1-2.7,6.1-6.1C48.9,9.1,46.1,6.4,42.8,6.4z M9.7,16.4H7.1
		c-2.2,0-3.9-1.8-3.9-3.9c0-2.2,1.8-3.9,3.9-3.9h2.6V16.4z M38.1,16.6c0,7.2-5.9,13.1-13.1,13.1s-13.1-5.9-13.1-13.1V3h26.2
		L38.1,16.6L38.1,16.6z M42.8,16.4h-2.6V8.6h2.6c2.2,0,3.9,1.8,3.9,3.9C46.8,14.7,45,16.4,42.8,16.4z"/>
	<g>
		<path class="st1" d="M25.5,22.2c-0.6,0-1.1-0.5-1.1-1.1v-9h-2.6c-0.6,0-1.1-0.5-1.1-1.1s0.5-1.1,1.1-1.1h3.7
			c0.6,0,1.1,0.5,1.1,1.1v10.1C26.5,21.7,26,22.2,25.5,22.2z"/>
	</g>
</g>
</svg>
