<?xml version="1.0" encoding="utf-8"?>
<!-- Generator: Adobe Illustrator 21.0.0, SVG Export Plug-In . SVG Version: 6.00 Build 0)  -->
<svg version="1.1" id="Layer_1" xmlns="http://www.w3.org/2000/svg" xmlns:xlink="http://www.w3.org/1999/xlink" x="0px" y="0px"
	 viewBox="0 0 50 50" style="enable-background:new 0 0 50 50;" xml:space="preserve">
<style type="text/css">
	.st0{fill:#186AB7;}
	.st1{fill:#FF7C1E;}
</style>
<g>
	<path class="st0" d="M48.6,42.9L37.7,32c2.1-3.2,3.2-6.9,3.2-10.9c0-5.4-2.1-10.4-5.9-14.1s-8.7-5.9-14.1-5.9l0,0
		c-11,0.1-20,9-20,20.1c0,5.4,2.1,10.4,5.9,14.1s8.7,5.9,14.1,5.9l0,0c3.8,0,7.6-1.2,10.8-3.2l11,10.9h1.5l4.4-4.4L48.6,42.9z
		 M20.8,38.9L20.8,38.9c-4.8,0-9.2-1.8-12.6-5.2s-5.2-7.8-5.2-12.6c0-9.8,8-17.8,17.8-17.8l0,0c4.7,0,9.2,1.8,12.6,5.2
		c3.4,3.4,5.2,7.8,5.2,12.6c0,4.7-1.8,9.2-5.2,12.6C30.1,37.1,25.6,38.9,20.8,38.9z M43.4,46.6l-9.8-9.8l3-2.9l9.8,9.8L43.4,46.6z"
		/>
	<g>
		<path class="st1" d="M35.9,22.4c-0.6,0-1.1-0.5-1.1-1.1c0-7.9-6.3-14.2-14.2-14.2c-0.6,0-1.1-0.5-1.1-1.1S20.1,5,20.7,5
			c9,0,16.4,7.4,16.4,16.4C37,21.9,36.5,22.4,35.9,22.4z"/>
	</g>
</g>
</svg>
