<?xml version="1.0" encoding="utf-8"?>
<!-- Generator: Adobe Illustrator 21.0.0, SVG Export Plug-In . SVG Version: 6.00 Build 0)  -->
<svg version="1.1" id="Layer_1" xmlns="http://www.w3.org/2000/svg" xmlns:xlink="http://www.w3.org/1999/xlink" x="0px" y="0px"
	 viewBox="0 0 50 50" style="enable-background:new 0 0 50 50;" xml:space="preserve">
<style type="text/css">
	.st0{fill:#186AB7;}
	.st1{fill:#FF7C1E;}
</style>
<g>
	<g>
		<path class="st0" d="M25.7,48.8h-0.2l-0.1-0.5l-0.2,0.4c-13-5.6-21.1-16.3-21.1-27.9V3l1.8-0.7c1.7,2,5.3,3.3,9.1,3.3
			c4.6,0,8.7-1.8,9.7-4.4h1.8c1.1,2.6,5.2,4.4,9.7,4.4c3.9,0,7.4-1.2,9.1-3.2L47.2,3v17.9c0,11.6-8.1,22.3-21.2,27.9l-0.2-0.4
			L25.7,48.8z M6.1,5.1v15.6c0,10.6,7.5,20.5,19.5,25.9c12.1-5.4,19.6-15.2,19.6-25.8V5.2c-2.2,1.5-5.4,2.4-8.8,2.4
			c-4.6,0-8.7-1.6-10.7-4.1C23.7,6,19.5,7.6,15,7.6C11.5,7.6,8.4,6.8,6.1,5.1z"/>
	</g>
	<g>
		<path class="st1" d="M25,33.7c-0.3,0-0.6-0.1-0.8-0.4l-7.9-9.3c-0.4-0.4-0.3-1.1,0.1-1.4c0.4-0.4,1.1-0.3,1.4,0.1l7.1,8.2
			l10.5-16.2c0.3-0.5,1-0.6,1.4-0.3c0.5,0.3,0.6,1,0.3,1.4L25.9,33.2C25.7,33.5,25.4,33.6,25,33.7C25.1,33.7,25,33.7,25,33.7z"/>
	</g>
</g>
</svg>
